<?xml version="1.0" encoding="UTF-8"?>
<svg id="Layer_2" data-name="Layer 2" xmlns="http://www.w3.org/2000/svg" viewBox="0 0 180 309.46">
  <defs>
    <style>
      .cls-1 {
        fill: #0d2328;
      }

      .cls-2 {
        opacity: .1;
      }

      .cls-3 {
        fill: #f4fb44;
      }
    </style>
  </defs>
  <g id="brand-logo">
    <g id="brand-logo-2" data-name="brand-logo">
      <path class="cls-3" d="m180,131.46v88c0,49.63-40.37,90-90,90S0,269.09,0,219.46v-88h40v88c0,27.57,22.43,50,50,50s50-22.43,50-50v-88h40Z"/>
      <g>
        <g>
          <path class="cls-1" d="m90,105c-28.95,0-52.5-23.55-52.5-52.5S61.05,0,90,0s52.5,23.55,52.5,52.5-23.55,52.5-52.5,52.5Zm0-95c-23.43,0-42.5,19.07-42.5,42.5s19.07,42.5,42.5,42.5,42.5-19.07,42.5-42.5S113.43,10,90,10Z"/>
          <g class="cls-2">
            <path class="cls-1" d="m90,86c-19.25,2.3-36.23-14.38-36-33.5-.18-14.1,9.3-27.72,22.71-32.08,4.33-1.43,8.9-1.97,13.29-1.42-8.77,1.03-16.72,5.07-22.31,11.19-18.75,20.81-5.3,52.85,22.31,55.81h0Z"/>
          </g>
        </g>
        <g>
          <g>
            <rect class="cls-1" x="70.4" y="131" width="10" height="71"/>
            <rect class="cls-1" x="100.4" y="131" width="10" height="71"/>
            <rect class="cls-1" x="85.4" y="131" width="10" height="71"/>
          </g>
          <g>
            <polygon class="cls-1" points="92.63 240 90 245 87.37 240 92.63 240"/>
            <polygon class="cls-1" points="110 207 95.26 235 84.74 235 70 207 110 207"/>
          </g>
        </g>
      </g>
    </g>
  </g>
</svg>